# xmcd
#
# Track frame offsets: 
#        150
#        16217
#        34055
#        53967
#        72647
#        88097
#        104875
#        127867
#        146452
#        167627
#        180557
#        196647
#        214270
#        231650
#
# Disc length: 3442 seconds
#
# Revision: 0
# Processed by: cddbd v1.4PL0 Copyright (c) Steve Scherf et al.
# Submitted via: ExactAudioCopy v0.90b2
#
DISCID=cb0d700e
DTITLE=Sektor Gaza - Gazovaja Ataka
DYEAR=1996
DGENRE=Punk Rock
TTITLE0=Avans
TTITLE1=Svidanie
TTITLE2=Vylazka
TTITLE3=30 Let
TTITLE4=LIFE
TTITLE5=Tuman
TTITLE6=Tvoj Zvonok
TTITLE7=GAI (Voditel'skaja-Podhalimskaja)
TTITLE8=Mak
TTITLE9=Chunga-Changa
TTITLE10=Hata
TTITLE11=Passkaz, Uslyshanyj v Avtokombinate
TTITLE12=Oparysh
TTITLE13=Chunga-Changa (Styob House rmx)
EXTD=
EXTT0=
EXTT1=
EXTT2=
EXTT3=
EXTT4=
EXTT5=
EXTT6=
EXTT7=
EXTT8=
EXTT9=
EXTT10=
EXTT11=
EXTT12=
EXTT13=
PLAYORDER=
